<?xml version="1.0" standalone="no"?><!DOCTYPE svg PUBLIC "-//W3C//DTD SVG 1.1//EN"
        "http://www.w3.org/Graphics/SVG/1.1/DTD/svg11.dtd">
<svg t="1546050282107" class="icon" style="" viewBox="0 0 1024 1024" version="1.1" xmlns="http://www.w3.org/2000/svg"
     p-id="727" xmlns:xlink="http://www.w3.org/1999/xlink" width="200" height="200">
    <defs>
        <style type="text/css"></style>
    </defs>
    <path d="M376.32 506.368c-121.344-84.48-151.552-250.88-67.584-372.736s250.88-151.552 372.736-67.584 151.552 250.88 67.584 372.736c-20.992 30.208-47.616 55.296-78.336 74.752 190.464 65.536 326.656 246.272 326.656 458.752 0 18.432-14.848 33.28-33.28 33.28s-33.28-14.848-33.28-33.28c0-230.912-187.392-418.304-418.304-418.304s-418.304 187.392-418.304 418.304c0 18.432-14.848 33.28-33.28 33.28s-33.28-14.848-33.28-33.28c-1.024-221.184 146.432-407.552 348.672-465.92z m152.576-19.456c111.104 0 200.704-90.112 200.704-200.704s-90.112-200.704-200.704-200.704S327.68 175.104 327.68 286.208s90.112 200.704 201.216 200.704z"
          fill="#67696e" p-id="728"></path>
</svg>
